# xmcd
#
# Track frame offsets:
#	150
#	14923
#	32023
#	45418
#	60140
#	73909
#	92194
#	111340
#	128295
#	146924
#	163784
#	181573
#	195467
#
# Disc length: 2872 seconds
#
# Revision: 0
# Processed by: cddbd v1.5.2PL0 Copyright (c) Steve Scherf et al.
# Submitted via: audiograbber 1.83.01
#
DISCID=ad0b360d
DTITLE=HeyCowBoyBob Wallace - Faith Will Get You There 
DYEAR=2010
DGENRE=Gospel
TTITLE0=Let's Get Together
TTITLE1=Faith Will Get You There
TTITLE2=Sing Hallelujah
TTITLE3=That's Called Amazing Grace
TTITLE4=What A Wonderful Love
TTITLE5=A Volunteer-A Friend(Instrum)
TTITLE6=I'll Fly Away With Amazing Grace
TTITLE7=Where The Son Always Shines
TTITLE8=The Lady Gospel Singer
TTITLE9=Moved Into The Light
TTITLE10=Blessed Is The Day
TTITLE11=I Believe In Jesus
TTITLE12=A Volunteer-A Friend (fullband)
EXTD=
EXTT0=
EXTT1=
EXTT2=
EXTT3=
EXTT4=
EXTT5=
EXTT6=
EXTT7=
EXTT8=
EXTT9=
EXTT10=
EXTT11=
EXTT12=
PLAYORDER=
